<?xml version="1.0" encoding="utf-8"?>
<!-- Generator: Adobe Illustrator 24.0.1, SVG Export Plug-In . SVG Version: 6.00 Build 0)  -->
<svg version="1.1" id="Layer_1" xmlns="http://www.w3.org/2000/svg" xmlns:xlink="http://www.w3.org/1999/xlink" x="0px" y="0px"
	 viewBox="0 0 444 445" style="enable-background:new 0 0 444 445;" xml:space="preserve">
<style type="text/css">
	.st0{fill-rule:evenodd;clip-rule:evenodd;fill:#FFFFFF;stroke:#FFFFFF;stroke-width:3;stroke-miterlimit:10;}
	.st1{fill:#FFFFFF;stroke:#FFFFFF;stroke-width:3;stroke-miterlimit:10;}
</style>
<title>active</title>
<path class="st0" d="M301.6,105.2c-13.1,0.1-23.7,10.7-23.8,23.8v35.7h15.9v-35.7c-0.1-4.3,3.4-7.9,7.7-7.9c0.1,0,0.2,0,0.2,0h27.7
	c4.3-0.1,7.9,3.4,7.9,7.7c0,0.1,0,0.2,0,0.2c0,4.4-3.5,7.9-7.9,7.9h-19.8v15.9h19.8c13.1,0,23.8-10.6,23.8-23.8
	s-10.6-23.8-23.8-23.8c0,0,0,0,0,0L301.6,105.2z"/>
<path class="st0" d="M0.5,358.7l443.7,51.4v15.9L0.5,374.6V358.7z"/>
<path class="st0" d="M236,117.1c-10.4,0-20.6,2.9-29.4,8.4l-49.9,31.2h-45.3c-13.1,0.1-23.7,10.7-23.8,23.8v4
	c0.1,13.1,10.7,23.7,23.8,23.8h53.7l61.3-36.8l-8.2-13.6l-57.5,34.5h-49.3c-4.3,0.1-7.9-3.4-7.9-7.7c0-0.1,0-0.2,0-0.2v-4
	c-0.1-4.3,3.4-7.9,7.7-7.9c0.1,0,0.1,0,0.2,0h49.8l53.8-33.6c6.3-3.9,13.6-6,21-6h18c13.1-0.1,23.7,10.5,23.8,23.5
	c0,0.1,0,0.2,0,0.2v105.4c0,15.1,2.9,30.1,8.5,44.1l39.6,99l14.7-5.9l-39.6-99c-4.9-12.2-7.4-25.1-7.4-38.3V156.7
	c-0.1-21.9-17.8-39.5-39.6-39.6H236z"/>
<path class="st0" d="M245.4,296l-14.4,6.6l47.5,103L293,399L245.4,296z"/>
<path class="st0" d="M244.5,273.9l-31.9,31.9c-9.1,9.1-13.2,22.2-11,34.9l9,51.1l15.6-2.8l-9-51.1c-1.3-7.6,1.1-15.4,6.6-20.9
	l31.9-31.9L244.5,273.9z"/>
<path class="st0" d="M202.5,172.5v62.8c0,6-2.3,11.8-6.3,16.2l-31.5,33.9c-9,9.7-12.6,23.3-9.5,36.1l15.9,66.7l15.4-3.7l-15.9-66.7
	c-1.8-7.7,0.3-15.9,5.7-21.7l31.5-33.9c6.8-7.3,10.6-17,10.6-27v-62.8L202.5,172.5z"/>
<path class="st0" d="M103.5,220.1v158.5h15.8V220.1H103.5z"/>
<path class="st0" d="M103.5,132.9v15.9h15.8v-15.9H103.5z"/>
<path class="st0" d="M332.1,140.6l-13.4,8.4l16.4,26.1c1.5,2.4,2.3,5.2,2.3,8v76.6c0.1,4.3-3.4,7.9-7.7,7.9c-0.1,0-0.2,0-0.2,0
	h-43.6v15.8h43.6c13.1-0.1,23.7-10.7,23.8-23.8V183c0-5.8-1.6-11.4-4.7-16.4L332.1,140.6z"/>
<path class="st1" d="M248.4,18c-24.1,0-43.6,19.5-43.6,43.6s19.5,43.6,43.6,43.6s43.6-19.5,43.6-43.6c0,0,0,0,0,0
	C291.9,37.5,272.4,18.1,248.4,18z M248.4,33.8c15.3,0,27.7,12.4,27.7,27.7s-12.4,27.7-27.7,27.7s-27.7-12.4-27.7-27.7l0,0
	c-0.1-15.2,12.2-27.7,27.5-27.7C248.2,33.8,248.3,33.8,248.4,33.8z"/>
</svg>
