<svg id="Layer_1" data-name="Layer 1" xmlns="http://www.w3.org/2000/svg" viewBox="0 0 444 445"><defs><style>.cls-1,.cls-2{fill:#4e4d4d;stroke:#4e4d4d;stroke-miterlimit:10;stroke-width:3px;}.cls-1{fill-rule:evenodd;}</style></defs><title>active</title><path class="cls-1" d="M301.58,105.16a23.9,23.9,0,0,0-23.77,23.77v35.66h15.85V128.93a7.8,7.8,0,0,1,7.92-7.92h27.74a7.8,7.8,0,0,1,7.92,7.92,7.92,7.92,0,0,1-7.86,7.92H309.54V152.7h19.78a23.77,23.77,0,1,0,0-47.54Z"/><path class="cls-1" d="M.5,358.7l443.71,51.41v15.94L.5,374.64Z"/><path class="cls-1" d="M236,117.05a55.5,55.5,0,0,0-29.41,8.42l-49.89,31.2H111.42a23.89,23.89,0,0,0-23.77,23.77v4a23.9,23.9,0,0,0,23.77,23.77h53.7l61.31-36.81-8.17-13.58-57.53,34.54H111.42a7.81,7.81,0,0,1-7.92-7.93v-4a7.81,7.81,0,0,1,7.92-7.92h49.83L215,138.9a39.64,39.64,0,0,1,21-6h18a23.65,23.65,0,0,1,23.77,23.77v105.4a118.92,118.92,0,0,0,8.51,44.13l39.59,99.05,14.73-5.91-39.61-99a103,103,0,0,1-7.37-38.25V156.66A39.74,39.74,0,0,0,254,117.05Z"/><path class="cls-1" d="M245.41,296,231,302.6l47.54,103L293,399Z"/><path class="cls-1" d="M244.48,273.85l-31.91,31.94a39.61,39.61,0,0,0-11,34.88l9,51.11,15.6-2.76-9-51.1A23.73,23.73,0,0,1,223.77,317l31.91-31.92Z"/><path class="cls-1" d="M202.54,172.51v62.8a23.82,23.82,0,0,1-6.34,16.19l-31.51,33.92a39.62,39.62,0,0,0-9.5,36.13l15.87,66.73,15.42-3.69-15.88-66.7a23.79,23.79,0,0,1,5.69-21.7l31.51-33.92a39.6,39.6,0,0,0,10.59-27v-62.8Z"/><path class="cls-1" d="M103.5,220.05V378.53h15.85V220.05Z"/><path class="cls-1" d="M103.5,132.89v15.85h15.85V132.89Z"/><path class="cls-1" d="M332.07,140.57,318.64,149,335,175.08a15,15,0,0,1,2.26,8v76.63a7.81,7.81,0,0,1-7.92,7.93H285.74v15.84h43.58a23.89,23.89,0,0,0,23.77-23.77V183a30.88,30.88,0,0,0-4.68-16.35Z"/><path class="cls-2" d="M248.35,18a43.58,43.58,0,1,0,43.58,43.58A43.69,43.69,0,0,0,248.35,18Zm0,15.85a27.73,27.73,0,1,1-27.73,27.73A27.61,27.61,0,0,1,248.35,33.85Z"/></svg>