<svg id="Layer_1" data-name="Layer 1" xmlns="http://www.w3.org/2000/svg" viewBox="0 0 444 445"><defs><style>.cls-1{fill:#4e4d4d;}</style></defs><title>Prototype</title><path class="cls-1" d="M289.13,269.63a6.72,6.72,0,0,0,6.72-6.72V182.44a33.6,33.6,0,0,0-33.59-33.59H181.79a33.58,33.58,0,0,0-33.59,33.59v80.47a6.72,6.72,0,0,0,6.71,6.72Zm-127.5-13.36V195.81H282.41v60.46Zm20.16-94h80.47a20.15,20.15,0,0,1,20.15,20.15H161.63a20.16,20.16,0,0,1,20.16-20.15Z"/><path class="cls-1" d="M295.85,289.78H148.2a33.61,33.61,0,0,0-33.6,33.59V377a33.59,33.59,0,0,0,33.6,33.52H295.85A33.58,33.58,0,0,0,329.44,377V323.37A33.6,33.6,0,0,0,295.85,289.78ZM148.2,303.22H295.85a20.17,20.17,0,0,1,18.9,13.44H129.3A20.16,20.16,0,0,1,148.2,303.22Zm147.65,94H148.2A20.22,20.22,0,0,1,128,377.05v-47H316v47a20.22,20.22,0,0,1-20.15,20.15Z"/><path class="cls-1" d="M222,88.46A107.46,107.46,0,0,0,114.61,195.8v13.44a6.72,6.72,0,1,0,13.43,0V195.8a94,94,0,0,1,188,0v13.44a6.72,6.72,0,1,0,13.43,0V195.8A107.46,107.46,0,0,0,222,88.46Z"/><path class="cls-1" d="M386.73,249.55H356.24V195.73A133.72,133.72,0,0,0,302.19,88.46v-47A33.57,33.57,0,0,0,268.6,7.92H175.06a33.57,33.57,0,0,0-33.59,33.51v47a133.83,133.83,0,0,0-54,107.27v53.82H57.31a29.52,29.52,0,0,0-29.53,29.53V316a6.72,6.72,0,0,0,6.72,6.72v76.12A18.47,18.47,0,0,0,53,417.28H88.17v13.44a6.72,6.72,0,0,0,6.72,6.72H349.52a6.71,6.71,0,0,0,6.71-6.72V417.28h35.59a18.45,18.45,0,0,0,18.45-18.45V323.37a6.71,6.71,0,0,0,6.72-6.71V279.74a29.54,29.54,0,0,0-30.27-30.19ZM154.91,41.43a20.08,20.08,0,0,1,20.16-20.08H269a20.08,20.08,0,0,1,20.15,20.08V79.75a141.62,141.62,0,0,0-13.44-6.87v-18a20.09,20.09,0,0,0-20.08-20.08H188.43a20.08,20.08,0,0,0-20.08,20.08v18a130.7,130.7,0,0,0-13.44,6.87ZM262.26,67.64a133.6,133.6,0,0,0-80.47,0V54.87a6.66,6.66,0,0,1,6.64-6.72h67.19a6.66,6.66,0,0,1,6.64,6.72ZM40.78,279.3a16.6,16.6,0,0,1,16.54-16.53H87.81v47h-47ZM52.59,403.77a5.1,5.1,0,0,1-5.09-5.09v-75.3H87.81v80.54ZM342.8,423.86H101.24V195.73a120.78,120.78,0,0,1,241.56,0Zm44.3-161.09a16.6,16.6,0,0,1,16.54,16.53v30.49h-47.4V262.91Zm9.82,135.91a5.11,5.11,0,0,1-5.1,5.1H356.24v-80.4h40.31Z"/></svg>