<?xml version="1.0" encoding="utf-8"?>
<!-- Generator: Adobe Illustrator 24.0.1, SVG Export Plug-In . SVG Version: 6.00 Build 0)  -->
<svg version="1.1" id="Layer_1" xmlns="http://www.w3.org/2000/svg" xmlns:xlink="http://www.w3.org/1999/xlink" x="0px" y="0px"
	 viewBox="0 0 444 445" style="enable-background:new 0 0 444 445;" xml:space="preserve">
<style type="text/css">
	.st0{fill:#FFFFFF;}
</style>
<title>Prototype</title>
<path class="st0" d="M289.1,269.6c3.7,0,6.7-3,6.7-6.7l0,0v-80.5c0-18.5-15-33.6-33.6-33.6h-80.5c-18.5,0-33.6,15-33.6,33.6
	c0,0,0,0,0,0v80.5c0,3.7,3,6.7,6.7,6.7H289.1z M161.6,256.3v-60.5h120.8v60.5L161.6,256.3z M181.8,162.3h80.5
	c11.1,0,20.1,9,20.1,20.1H161.6C161.6,171.3,170.7,162.3,181.8,162.3z"/>
<path class="st0" d="M295.9,289.8H148.2c-18.6,0-33.6,15-33.6,33.6V377c0,18.5,15.1,33.5,33.6,33.5h147.7c18.5,0,33.6-15,33.6-33.5
	v-53.6C329.4,304.8,314.4,289.8,295.9,289.8z M148.2,303.2h147.7c8.5,0,16.1,5.4,18.9,13.4H129.3
	C132.1,308.6,139.7,303.3,148.2,303.2z M295.8,397.2H148.2c-11.1,0-20.2-9-20.2-20.2v-47h188v47C316,388.2,307,397.2,295.8,397.2
	L295.8,397.2z"/>
<path class="st0" d="M222,88.5c-59.3,0-107.3,48.1-107.4,107.3v13.4c-0.1,3.7,2.7,6.8,6.5,7s6.8-2.7,7-6.5c0-0.2,0-0.3,0-0.5v-13.4
	c0-51.9,42.1-94,94-94s94,42.1,94,94v13.4c-0.1,3.7,2.7,6.8,6.5,7c3.7,0.1,6.8-2.7,7-6.5c0-0.2,0-0.3,0-0.5v-13.4
	C329.4,136.5,281.3,88.5,222,88.5z"/>
<path class="st0" d="M386.7,249.6h-30.5v-53.8c0-42.3-20.1-82.1-54-107.3v-47c0-18.5-15.1-33.6-33.6-33.5h-93.5
	c-18.5,0-33.6,15-33.6,33.5v47c-33.9,25.2-54,65-54,107.3v53.8H57.3c-16.3,0-29.5,13.2-29.5,29.5c0,0,0,0,0,0v37
	c0,3.7,3,6.7,6.7,6.7l0,0v76.1c0,10.2,8.3,18.5,18.5,18.4c0,0,0,0,0,0h35.2v13.4c0,3.7,3,6.7,6.7,6.7l0,0h254.6c3.7,0,6.7-3,6.7-6.7
	c0,0,0,0,0,0v-13.4h35.6c10.2,0,18.5-8.3,18.5-18.4v0v-75.5c3.7,0,6.7-3,6.7-6.7c0,0,0,0,0,0v-36.9c0.4-16.3-12.6-29.8-28.9-30.2
	C387.7,249.5,387.2,249.5,386.7,249.6L386.7,249.6z M154.9,41.4c0-11.1,9-20.1,20.1-20.1c0,0,0.1,0,0.1,0H269
	c11.1,0,20.1,8.9,20.1,20c0,0,0,0,0,0.1v38.3c-4.4-2.5-8.8-4.8-13.4-6.9v-18c0-11.1-9-20.1-20.1-20.1h-67.2
	c-11.1,0-20.1,9-20.1,20.1c0,0,0,0,0,0v18c-4.6,2-9.1,4.3-13.4,6.9L154.9,41.4z M262.3,67.6c-26.2-8.3-54.3-8.3-80.5,0V54.9
	c0-3.7,2.9-6.7,6.6-6.7c0,0,0,0,0,0h67.2c3.7,0,6.7,3,6.6,6.7c0,0,0,0,0,0V67.6z M40.8,279.3c0-9.1,7.4-16.5,16.5-16.5h30.5v47h-47
	L40.8,279.3z M52.6,403.8c-2.8,0-5.1-2.3-5.1-5.1v-75.3h40.3v80.5L52.6,403.8z M342.8,423.9H101.2V195.7C101.3,129,155.3,75,222,75
	c66.7,0,120.7,54.1,120.8,120.8V423.9z M387.1,262.8c9.1,0,16.5,7.4,16.5,16.5v30.5h-47.4v-46.9L387.1,262.8z M396.9,398.7
	c0,2.8-2.3,5.1-5.1,5.1h-35.6v-80.4h40.3L396.9,398.7z"/>
</svg>
