<?xml version="1.0" encoding="utf-8"?>
<!-- Generator: Adobe Illustrator 24.0.1, SVG Export Plug-In . SVG Version: 6.00 Build 0)  -->
<svg version="1.1" id="Layer_1" xmlns="http://www.w3.org/2000/svg" xmlns:xlink="http://www.w3.org/1999/xlink" x="0px" y="0px"
	 viewBox="0 0 444 445" style="enable-background:new 0 0 444 445;" xml:space="preserve">
<style type="text/css">
	.st0{fill:#FFFFFF;}
</style>
<title>Prototype</title>
<path class="st0" d="M443.2,191.3c-1.4-2.9-4.3-4.7-7.5-4.7h-41.9c-2.6,0-5,1.2-6.6,3.2L301,300.5h-34.1V184.7c0,0,0-0.1,0-0.1
	c5.5-13.4,17-22.1,29.4-22.2h0.1c12.5,0,23.8,8.4,29.5,21.9c1.3,3.1,4.3,5.1,7.7,5.1h0.7c0.3,0,0.5,0,0.8-0.1c3-0.4,5.6-2.3,6.7-5.1
	c5.5-13.4,17-22.1,29.4-22.2h0.1c5,0,10,1.3,14.3,3.9c1.3,0.7,2.7,1.1,4.2,1.1l0,0c4.6,0,8.4-3.7,8.4-8.4c0-0.7-0.1-1.4-0.3-2.1
	c-12.7-65.6-73.6-96.7-131.2-99.3v-9.3c0.2-4.6-3.5-8.5-8.1-8.6c-4.6-0.2-8.5,3.5-8.6,8.1c0,0.2,0,0.4,0,0.6v9.3
	c-57.7,2.7-118.9,33.9-131.3,99.9c-0.9,4.5,2.1,8.9,6.6,9.8c2,0.4,4.1,0,5.8-1c4.3-2.6,9.3-4,14.3-4h0.1
	c12.4,0.1,23.9,8.8,29.4,22.2c1.1,2.8,3.7,4.8,6.7,5.1l0.8,0.1h0.7c3.4,0,6.4-2,7.7-5.1c5.6-13.5,16.9-21.9,29.5-21.9h0.1
	c12.4,0.1,23.9,8.8,29.4,22.2c0,0,0,0,0,0.1v115.8L9,300.5l0,0c-0.4,0-0.7,0-1,0.1H7.7c-0.3,0-0.6,0.1-0.8,0.2l-0.2,0
	c-0.3,0.1-0.7,0.2-1,0.4H5.6c-0.3,0.1-0.6,0.3-0.8,0.4l-0.2,0.1c-0.3,0.2-0.5,0.4-0.8,0.5c0,0,0,0-0.1,0c-0.3,0.2-0.5,0.4-0.7,0.7
	c-0.1,0.1-0.1,0.1-0.2,0.2s-0.4,0.4-0.5,0.6c0,0.1-0.1,0.1-0.1,0.1c-0.2,0.3-0.4,0.6-0.5,0.9v0c0,0,0,0.1,0,0.1
	c-0.1,0.3-0.3,0.6-0.4,0.9l-0.1,0.2c-0.1,0.3-0.2,0.7-0.3,1v0.1c-0.1,0.3-0.1,0.6-0.1,1c0,0.1,0,0.2,0,0.3s0,0.2,0,0.3l-0.4,60.1
	c0,4.6,3.7,8.4,8.3,8.4l0,0c4.6,0,8.3-3.7,8.4-8.3l0.1-34l3.4,4.8l-0.3,57.2c0,4.6,3.7,8.4,8.3,8.4h0.1c4.6,0,8.3-3.7,8.4-8.3
	l0.3-51.6h212.8l-0.3,23.3c0,4.6,3.7,8.4,8.3,8.5h0.1c4.6,0,8.3-3.7,8.4-8.3l0.3-23.5h29.8l-0.1,23.4c0,4.6,3.7,8.4,8.3,8.4l0,0
	c4.6,0,8.3-3.7,8.4-8.3l0.1-23.5h3.3l-0.2,51.5c0,4.6,3.7,8.4,8.3,8.4l0,0c4.6,0,8.3-3.7,8.4-8.3l0.2-57.1l86.9-111.7l21.9-28.2
	C444.1,197.6,444.5,194.2,443.2,191.3L443.2,191.3z M296.5,145.7h-0.2c-10.8,0.2-21.2,4.1-29.4,11.1V75.6
	c19.4,6.1,32.1,21.7,39.7,34.5s12.9,27.9,16.1,44.1C315,148.7,305.9,145.8,296.5,145.7L296.5,145.7z M378,145.8
	c-2.1-0.3-4.3-0.5-6.5-0.5h-0.2c-11.5,0.2-22.6,4.7-31,12.6c-4.6-29-16.1-57.7-34.9-77.2C337.7,90.8,366.2,112,378,145.8L378,145.8z
	 M145.9,145.3h-0.2c-2.2,0-4.3,0.1-6.5,0.5c11.8-33.8,40.2-55,72.6-65c-18.8,19.5-30.3,48.2-34.9,77.2
	C168.5,150,157.4,145.5,145.9,145.3L145.9,145.3z M220.9,145.7h-0.2c-9.4,0.1-18.5,3-26.2,8.5c3.2-16.2,8.7-31.4,16.1-44.1
	s20.2-28.5,39.6-34.5v81.2C242,149.8,231.6,145.9,220.9,145.7L220.9,145.7z M300.8,317.2l8.1,11.4h-50h-0.2h-0.1h-0.3h-225
	l-8.2-11.5L300.8,317.2z M407.1,218l-81.8,105l-9.8-13.9l82.4-105.8h20.7L407.1,218z"/>
</svg>
