<svg id="Layer_1" data-name="Layer 1" xmlns="http://www.w3.org/2000/svg" viewBox="0 0 444 445"><defs><style>.cls-1{fill:#4e4d4d;}</style></defs><title>Prototype</title><path class="cls-1" d="M443.16,191.27a8.36,8.36,0,0,0-7.5-4.68H393.8a8.33,8.33,0,0,0-6.59,3.23L301,300.48H266.93V184.71a.26.26,0,0,0,0-.08c5.46-13.42,17-22.13,29.4-22.21h.15c12.53,0,23.84,8.38,29.49,21.88a8.37,8.37,0,0,0,7.71,5.13h.72a5.43,5.43,0,0,0,.82-.08,8.33,8.33,0,0,0,6.74-5.12c5.46-13.43,17-22.14,29.38-22.2h.13a28.14,28.14,0,0,1,14.31,3.9,8.39,8.39,0,0,0,4.22,1.14h0a8.36,8.36,0,0,0,8.08-10.5c-12.67-65.63-73.6-96.66-131.21-99.33V47.92a8.36,8.36,0,1,0-16.71,0v9.32C192.42,59.93,131.3,91.13,118.9,157.18A8.36,8.36,0,0,0,131.32,166,28.16,28.16,0,0,1,145.66,162h.11c12.41.05,23.94,8.78,29.4,22.19a8.32,8.32,0,0,0,6.74,5.13l.84.07h.72a8.37,8.37,0,0,0,7.71-5.12c5.64-13.51,16.95-21.88,29.49-21.88h.14c12.39.07,23.92,8.78,29.4,22.21,0,0,0,0,0,.06v115.8L9,300.47H9c-.35,0-.7,0-1,.07l-.26,0c-.28,0-.55.11-.83.17l-.19.05a10.37,10.37,0,0,0-1,.36l-.11,0a8.07,8.07,0,0,0-.82.43l-.22.13c-.26.17-.52.35-.77.54a.1.1,0,0,1-.07.05,9.6,9.6,0,0,0-.74.69c-.06.08-.13.13-.19.21s-.37.42-.54.65a.53.53,0,0,1-.11.14,6.92,6.92,0,0,0-.54.9l0,.05a.3.3,0,0,0,0,.11c-.13.28-.26.56-.37.86l-.08.18a9,9,0,0,0-.27,1v.06c-.06.32-.1.63-.13.95,0,.09,0,.2,0,.29s0,.23,0,.34L.33,368.75a8.37,8.37,0,0,0,8.32,8.4h0A8.35,8.35,0,0,0,17,368.83l.15-34,3.44,4.83-.34,57.2a8.37,8.37,0,0,0,8.3,8.41h.06A8.37,8.37,0,0,0,37,397l.32-51.59,212.78,0-.26,23.34a8.37,8.37,0,0,0,8.27,8.45h.09a8.37,8.37,0,0,0,8.36-8.26l.26-23.53h29.76l-.09,23.4a8.37,8.37,0,0,0,8.32,8.39h0a8.34,8.34,0,0,0,8.35-8.32l.1-23.47h3.34l-.22,51.55a8.37,8.37,0,0,0,8.32,8.4h0a8.35,8.35,0,0,0,8.36-8.32l.24-57.11,86.91-111.66,21.93-28.16a8.35,8.35,0,0,0,1-8.82ZM296.51,145.71h-.24a46,46,0,0,0-29.35,11.15V75.63c19.41,6.05,32.15,21.65,39.67,34.5S319.5,138,322.67,154.2a45.57,45.57,0,0,0-26.16-8.49Zm81.47.08a43.86,43.86,0,0,0-6.48-.48h-.21a46.27,46.27,0,0,0-31,12.6c-4.6-29-16.1-57.7-34.87-77.17C337.74,90.82,366.2,112,378,145.79Zm-232.13-.48h-.21a43.65,43.65,0,0,0-6.48.46c11.78-33.8,40.24-55,72.6-65C193,100.23,181.49,129,176.88,157.93a46.37,46.37,0,0,0-31-12.63Zm75,.4h-.24a45.56,45.56,0,0,0-26.17,8.49c3.18-16.23,8.66-31.36,16.09-44.07s20.24-28.45,39.64-34.5v81.23a45.93,45.93,0,0,0-29.32-11.15ZM300.8,317.19l8.09,11.44H258.84l-.2,0h-.09l-.26,0-225,0-8.18-11.5ZM407.11,218,325.36,323l-9.84-13.91L397.88,203.3h20.67Z"/></svg>