<?xml version="1.0" encoding="utf-8"?>
<!-- Generator: Adobe Illustrator 24.0.1, SVG Export Plug-In . SVG Version: 6.00 Build 0)  -->
<svg version="1.1" id="Layer_1" xmlns="http://www.w3.org/2000/svg" xmlns:xlink="http://www.w3.org/1999/xlink" x="0px" y="0px"
	 viewBox="0 0 444 445" style="enable-background:new 0 0 444 445;" xml:space="preserve">
<style type="text/css">
	.st0{fill:#FFFFFF;stroke:#FFFFFF;stroke-width:3;stroke-miterlimit:10;}
</style>
<title>city_trip</title>
<path class="st0" d="M438.5,434h-8.1V286.2c0-3.1-2.5-5.5-5.5-5.5c0,0,0,0,0,0h-5.8V169.1c0-1.7-0.8-3.3-2.2-4.4l-58-44.4
	c-2-1.5-4.8-1.5-6.7,0l-49,37.5V56.6c0.4-30.8-24.2-56-55-56.5s-56,24.2-56.5,55c0,0.5,0,1,0,1.5V434h-15.9V236.1
	c0-3.1-2.5-5.5-5.5-5.6c0,0,0,0,0,0h-12V121.1c0-1.7-0.8-3.4-2.2-4.4l-58-44.4c-2-1.5-4.8-1.5-6.8,0l-58,44.4
	c-1.4,1-2.2,2.7-2.2,4.4v109.5h-12c-3.1,0-5.5,2.5-5.6,5.5c0,0,0,0,0,0V434H5.5c-3.1,0-5.6,2.5-5.6,5.5c0,3.1,2.5,5.6,5.6,5.6h433.1
	c3.1,0,5.6-2.5,5.6-5.6C444.1,436.5,441.6,434,438.5,434L438.5,434z M419.3,434h-140V291.8h140V434z M355.5,131.6l52.5,40.2v108.8
	H303.1V171.7L355.5,131.6z M202.8,56.6c0-24.6,20-44.6,44.6-44.6C272,12,292,32,292,56.6c0,0,0,0,0,0v112.1c0,0.1-0.1,0.2-0.1,0.3
	v111.6h-18.2c-3.1,0-5.5,2.5-5.5,5.5V434h-65.4V56.6z M42.3,123.8l52.5-40.2l52.5,40.2v106.8H42.3V123.8z M24.7,241.7h140V434h-140
	L24.7,241.7z"/>
<path class="st0" d="M61.8,278.6c-3.1,0-5.6,2.5-5.6,5.5c0,0,0,0,0,0v17.2c0.1,3.1,2.7,5.4,5.8,5.3c2.9-0.1,5.2-2.4,5.3-5.3v-17.2
	C67.3,281.1,64.8,278.6,61.8,278.6z"/>
<path class="st0" d="M94.7,278.6c-3.1,0-5.6,2.5-5.6,5.6v17.2c0.1,3.1,2.7,5.4,5.8,5.3c2.9-0.1,5.2-2.4,5.3-5.3v-17.2
	C100.3,281.1,97.8,278.6,94.7,278.6C94.7,278.6,94.7,278.6,94.7,278.6z"/>
<path class="st0" d="M127.7,278.6c-3.1,0-5.6,2.5-5.6,5.6v17.2c0.1,3.1,2.7,5.4,5.8,5.3c2.9-0.1,5.2-2.4,5.3-5.3v-17.2
	C133.3,281.1,130.8,278.6,127.7,278.6C127.7,278.6,127.7,278.6,127.7,278.6z"/>
<path class="st0" d="M61.8,164.4c-3.1,0-5.5,2.5-5.6,5.5c0,0,0,0,0,0v17.2c0.1,3.1,2.7,5.4,5.8,5.3c2.9-0.1,5.2-2.4,5.3-5.3V170
	C67.3,166.9,64.9,164.4,61.8,164.4C61.8,164.4,61.8,164.4,61.8,164.4z"/>
<path class="st0" d="M94.7,164.4c-3.1,0-5.6,2.5-5.6,5.5c0,0,0,0,0,0v17.2c0.1,3.1,2.7,5.4,5.8,5.3c2.9-0.1,5.2-2.4,5.3-5.3V170
	C100.3,166.9,97.8,164.5,94.7,164.4C94.8,164.4,94.7,164.4,94.7,164.4z"/>
<path class="st0" d="M127.7,164.4c-3.1,0-5.6,2.5-5.6,5.5c0,0,0,0,0,0v17.2c0.1,3.1,2.7,5.4,5.8,5.3c2.9-0.1,5.2-2.4,5.3-5.3V170
	C133.3,166.9,130.8,164.5,127.7,164.4C127.7,164.4,127.7,164.4,127.7,164.4z"/>
<path class="st0" d="M322.5,240.8c3.1,0,5.5-2.5,5.5-5.6c0,0,0,0,0,0V218c0-3.1-2.5-5.6-5.5-5.6c-3.1,0-5.6,2.5-5.6,5.6v17.2
	C316.9,238.3,319.4,240.8,322.5,240.8C322.5,240.8,322.5,240.8,322.5,240.8z"/>
<path class="st0" d="M355.5,240.8c3.1,0,5.5-2.5,5.5-5.6V218c-0.1-3.1-2.7-5.4-5.8-5.3c-2.9,0.1-5.2,2.4-5.3,5.3v17.2
	C349.9,238.3,352.4,240.8,355.5,240.8C355.4,240.8,355.5,240.8,355.5,240.8z"/>
<path class="st0" d="M388.4,240.8c3.1,0,5.6-2.5,5.6-5.5c0,0,0,0,0,0V218c-0.1-3.1-2.7-5.4-5.8-5.3c-2.9,0.1-5.2,2.4-5.3,5.3v17.2
	C382.9,238.3,385.4,240.8,388.4,240.8z"/>
<path class="st0" d="M61.8,329.2c-3.1,0-5.5,2.5-5.5,5.5c0,0,0,0,0,0V352c0.1,3.1,2.7,5.4,5.8,5.3c2.9-0.1,5.2-2.4,5.3-5.3v-17.2
	C67.3,331.7,64.9,329.2,61.8,329.2C61.8,329.2,61.8,329.2,61.8,329.2z"/>
<path class="st0" d="M94.7,329.2c-3.1,0-5.6,2.5-5.6,5.5c0,0,0,0,0,0V352c0.1,3.1,2.7,5.4,5.8,5.3c2.9-0.1,5.2-2.4,5.3-5.3v-17.2
	C100.3,331.7,97.8,329.2,94.7,329.2C94.8,329.2,94.7,329.2,94.7,329.2z"/>
<path class="st0" d="M127.7,329.2c-3.1,0-5.6,2.5-5.6,5.5c0,0,0,0,0,0V352c0.1,3.1,2.7,5.4,5.8,5.3c2.9-0.1,5.2-2.4,5.3-5.3v-17.2
	C133.3,331.7,130.8,329.2,127.7,329.2C127.7,329.2,127.7,329.2,127.7,329.2z"/>
<path class="st0" d="M61.8,379.9c-3.1,0-5.5,2.5-5.5,5.5c0,0,0,0,0,0v17.2c0.1,3.1,2.7,5.4,5.8,5.3c2.9-0.1,5.2-2.4,5.3-5.3v-17.2
	C67.3,382.3,64.8,379.9,61.8,379.9z"/>
<path class="st0" d="M94.7,379.9c-3.1,0-5.6,2.5-5.6,5.5c0,0,0,0,0,0v17.2c0.1,3.1,2.7,5.4,5.8,5.3c2.9-0.1,5.2-2.4,5.3-5.3v-17.2
	C100.3,382.3,97.8,379.9,94.7,379.9C94.7,379.9,94.7,379.9,94.7,379.9z"/>
<path class="st0" d="M127.7,379.9c-3.1,0-5.6,2.5-5.6,5.5c0,0,0,0,0,0v17.2c0.1,3.1,2.7,5.4,5.8,5.3c2.9-0.1,5.2-2.4,5.3-5.3v-17.2
	C133.3,382.3,130.8,379.9,127.7,379.9C127.7,379.9,127.7,379.9,127.7,379.9z"/>
<path class="st0" d="M316.3,329.2c-3.1,0-5.5,2.5-5.5,5.5c0,0,0,0,0,0V352c0.1,3.1,2.7,5.4,5.8,5.3c2.9-0.1,5.2-2.4,5.3-5.3v-17.2
	C321.9,331.7,319.4,329.2,316.3,329.2C316.3,329.2,316.3,329.2,316.3,329.2z"/>
<path class="st0" d="M349.3,329.2c-3.1,0-5.5,2.5-5.5,5.5c0,0,0,0,0,0V352c0.1,3.1,2.7,5.4,5.8,5.3c2.9-0.1,5.2-2.4,5.3-5.3v-17.2
	C354.8,331.7,352.3,329.2,349.3,329.2C349.3,329.2,349.3,329.2,349.3,329.2z"/>
<path class="st0" d="M382.2,329.2c-3.1,0-5.6,2.5-5.6,5.5c0,0,0,0,0,0V352c0.1,3.1,2.7,5.4,5.8,5.3c2.9-0.1,5.2-2.4,5.3-5.3v-17.2
	C387.8,331.7,385.3,329.2,382.2,329.2z"/>
<path class="st0" d="M316.3,379.9c-3.1,0-5.5,2.5-5.5,5.5c0,0,0,0,0,0v17.2c0.1,3.1,2.7,5.4,5.8,5.3c2.9-0.1,5.2-2.4,5.3-5.3v-17.2
	C321.9,382.3,319.4,379.9,316.3,379.9C316.3,379.9,316.3,379.9,316.3,379.9z"/>
<path class="st0" d="M349.3,379.9c-3.1,0-5.5,2.5-5.5,5.5c0,0,0,0,0,0v17.2c0.1,3.1,2.7,5.4,5.8,5.3c2.9-0.1,5.2-2.4,5.3-5.3v-17.2
	C354.8,382.3,352.3,379.9,349.3,379.9z"/>
<path class="st0" d="M382.2,379.9c-3.1,0-5.6,2.5-5.6,5.5c0,0,0,0,0,0v17.2c0.1,3.1,2.7,5.4,5.8,5.3c2.9-0.1,5.2-2.4,5.3-5.3v-17.2
	C387.8,382.3,385.3,379.9,382.2,379.9z"/>
<path class="st0" d="M232.1,48.9c-3.1,0-5.6,2.5-5.6,5.5c0,0,0,0,0,0v17.2c0,3.1,2.5,5.6,5.6,5.6s5.6-2.5,5.6-5.6V54.5
	C237.7,51.4,235.2,48.9,232.1,48.9C232.1,48.9,232.1,48.9,232.1,48.9z"/>
<path class="st0" d="M262.6,77.3c3.1,0,5.6-2.5,5.6-5.5c0,0,0,0,0,0V54.5c-0.1-3.1-2.7-5.4-5.8-5.3c-2.9,0.1-5.2,2.4-5.3,5.3v17.2
	C257,74.8,259.5,77.3,262.6,77.3C262.6,77.3,262.6,77.3,262.6,77.3z"/>
<path class="st0" d="M232.1,106.9c-3.1,0-5.5,2.5-5.6,5.5c0,0,0,0,0,0v17.2c0,3.1,2.5,5.6,5.6,5.6s5.6-2.5,5.6-5.6v-17.2
	C237.7,109.4,235.2,106.9,232.1,106.9C232.1,106.9,232.1,106.9,232.1,106.9z"/>
<path class="st0" d="M262.6,135.2c3.1,0,5.6-2.5,5.6-5.5c0,0,0,0,0,0v-17.2c0.1-3.1-2.3-5.7-5.3-5.8c-3.1-0.1-5.7,2.3-5.8,5.3
	c0,0.2,0,0.3,0,0.5v17.2C257,132.7,259.5,135.2,262.6,135.2C262.6,135.2,262.6,135.2,262.6,135.2z"/>
<path class="st0" d="M232.1,164.8c-3.1,0-5.5,2.5-5.6,5.5c0,0,0,0,0,0v17.2c0,3.1,2.5,5.6,5.6,5.6s5.6-2.5,5.6-5.6v-17.2
	C237.7,167.3,235.2,164.8,232.1,164.8C232.1,164.8,232.1,164.8,232.1,164.8z"/>
<path class="st0" d="M262.6,193.1c3.1,0,5.6-2.5,5.6-5.5c0,0,0,0,0,0v-17.2c-0.1-3.1-2.7-5.4-5.8-5.3c-2.9,0.1-5.2,2.4-5.3,5.3v17.2
	C257,190.7,259.5,193.1,262.6,193.1C262.6,193.2,262.6,193.2,262.6,193.1z"/>
<path class="st0" d="M232.1,222.7c-3.1,0-5.6,2.5-5.6,5.5c0,0,0,0,0,0v17.2c0,3.1,2.5,5.6,5.6,5.6s5.6-2.5,5.6-5.6v-17.2
	C237.7,225.2,235.2,222.7,232.1,222.7C232.1,222.7,232.1,222.7,232.1,222.7z"/>
<path class="st0" d="M268.1,245.5v-17.2c-0.1-3.1-2.7-5.4-5.8-5.3c-2.9,0.1-5.2,2.4-5.3,5.3v17.2c0.1,3.1,2.7,5.4,5.8,5.3
	C265.7,250.7,268,248.4,268.1,245.5z"/>
<path class="st0" d="M232.1,280.7c-3.1,0-5.5,2.5-5.6,5.5c0,0,0,0,0,0v17.2c0,3.1,2.5,5.5,5.6,5.5s5.6-2.5,5.6-5.5v-17.2
	C237.7,283.2,235.2,280.7,232.1,280.7C232.1,280.7,232.1,280.7,232.1,280.7z"/>
<path class="st0" d="M232.1,338.6c-3.1,0-5.5,2.5-5.6,5.5c0,0,0,0,0,0v17.2c0,3.1,2.5,5.5,5.6,5.5s5.6-2.5,5.6-5.5v-17.2
	C237.7,341.1,235.2,338.6,232.1,338.6C232.1,338.6,232.1,338.6,232.1,338.6z"/>
</svg>
