<svg id="Layer_1" data-name="Layer 1" xmlns="http://www.w3.org/2000/svg" viewBox="0 0 444 445"><defs><style>.cls-1{fill:#4e4d4d;stroke:#4e4d4d;stroke-miterlimit:10;stroke-width:3px;}</style></defs><title>city_trip</title><path class="cls-1" d="M438.53,434h-8.15V286.24a5.54,5.54,0,0,0-5.55-5.55h-5.77l0-111.63a5.54,5.54,0,0,0-2.16-4.4l-58-44.42a5.55,5.55,0,0,0-6.74,0l-49,37.52,0-101.13a55.71,55.71,0,1,0-111.41,0V434H175.87l0-197.85a5.54,5.54,0,0,0-5.55-5.55h-12l0-109.53a5.52,5.52,0,0,0-2.17-4.4l-58-44.42a5.57,5.57,0,0,0-6.75,0l-58,44.42a5.49,5.49,0,0,0-2.17,4.4V230.59h-12a5.54,5.54,0,0,0-5.55,5.55l0,197.85H5.46a5.55,5.55,0,0,0,0,11.1H438.54a5.55,5.55,0,0,0,0-11.1Zm-19.26,0h-140V291.77h140Zm-63.8-302.36,52.46,40.17V280.66l-104.86,0V171.74Zm-152.71-75a44.6,44.6,0,1,1,89.2,0V168.75c0,.11-.06.2-.06.3V280.68H273.7a5.55,5.55,0,0,0-5.55,5.55V434H202.76ZM42.29,123.79,94.75,83.63l52.46,40.16v106.8H42.29ZM24.72,241.69h140V434h-140Z"/><path class="cls-1" d="M61.78,278.58a5.55,5.55,0,0,0-5.55,5.56v17.22a5.56,5.56,0,0,0,11.11,0V284.14A5.57,5.57,0,0,0,61.78,278.58Z"/><path class="cls-1" d="M94.73,278.58a5.56,5.56,0,0,0-5.56,5.56v17.22a5.56,5.56,0,0,0,11.11,0V284.14A5.55,5.55,0,0,0,94.73,278.58Z"/><path class="cls-1" d="M127.7,278.58a5.56,5.56,0,0,0-5.56,5.56v17.22a5.56,5.56,0,0,0,11.11,0V284.14A5.55,5.55,0,0,0,127.7,278.58Z"/><path class="cls-1" d="M61.78,164.44A5.54,5.54,0,0,0,56.23,170v17.22a5.56,5.56,0,0,0,11.11,0V170A5.55,5.55,0,0,0,61.78,164.44Z"/><path class="cls-1" d="M94.73,164.44A5.55,5.55,0,0,0,89.17,170v17.22a5.56,5.56,0,0,0,11.11,0V170A5.53,5.53,0,0,0,94.73,164.44Z"/><path class="cls-1" d="M127.7,164.44a5.55,5.55,0,0,0-5.56,5.55v17.22a5.56,5.56,0,0,0,11.11,0V170A5.53,5.53,0,0,0,127.7,164.44Z"/><path class="cls-1" d="M322.5,240.76a5.55,5.55,0,0,0,5.55-5.56V218a5.55,5.55,0,1,0-11.1,0V235.2A5.55,5.55,0,0,0,322.5,240.76Z"/><path class="cls-1" d="M355.47,240.76A5.55,5.55,0,0,0,361,235.2V218a5.56,5.56,0,0,0-11.11,0V235.2A5.55,5.55,0,0,0,355.47,240.76Z"/><path class="cls-1" d="M388.43,240.76A5.56,5.56,0,0,0,394,235.2V218a5.56,5.56,0,0,0-11.11,0V235.2A5.55,5.55,0,0,0,388.43,240.76Z"/><path class="cls-1" d="M61.78,329.23a5.54,5.54,0,0,0-5.55,5.55V352a5.56,5.56,0,0,0,11.11,0V334.78A5.55,5.55,0,0,0,61.78,329.23Z"/><path class="cls-1" d="M94.73,329.23a5.55,5.55,0,0,0-5.56,5.55V352a5.56,5.56,0,0,0,11.11,0V334.78A5.53,5.53,0,0,0,94.73,329.23Z"/><path class="cls-1" d="M127.7,329.23a5.55,5.55,0,0,0-5.56,5.55V352a5.56,5.56,0,0,0,11.11,0V334.78A5.53,5.53,0,0,0,127.7,329.23Z"/><path class="cls-1" d="M61.78,379.85a5.54,5.54,0,0,0-5.55,5.55v17.24a5.56,5.56,0,0,0,11.11,0V385.4A5.57,5.57,0,0,0,61.78,379.85Z"/><path class="cls-1" d="M94.73,379.85a5.55,5.55,0,0,0-5.56,5.55v17.24a5.56,5.56,0,0,0,11.11,0V385.4A5.54,5.54,0,0,0,94.73,379.85Z"/><path class="cls-1" d="M127.7,379.85a5.55,5.55,0,0,0-5.56,5.55v17.24a5.56,5.56,0,0,0,11.11,0V385.4A5.54,5.54,0,0,0,127.7,379.85Z"/><path class="cls-1" d="M316.29,329.23a5.54,5.54,0,0,0-5.55,5.55V352a5.56,5.56,0,0,0,11.11,0V334.78A5.54,5.54,0,0,0,316.29,329.23Z"/><path class="cls-1" d="M349.26,329.23a5.54,5.54,0,0,0-5.55,5.55V352a5.56,5.56,0,0,0,11.11,0V334.78A5.55,5.55,0,0,0,349.26,329.23Z"/><path class="cls-1" d="M382.21,329.23a5.55,5.55,0,0,0-5.56,5.55V352a5.56,5.56,0,0,0,11.11,0V334.78A5.55,5.55,0,0,0,382.21,329.23Z"/><path class="cls-1" d="M316.29,379.85a5.54,5.54,0,0,0-5.55,5.55v17.24a5.56,5.56,0,0,0,11.11,0V385.4A5.55,5.55,0,0,0,316.29,379.85Z"/><path class="cls-1" d="M349.26,379.85a5.54,5.54,0,0,0-5.55,5.55v17.24a5.56,5.56,0,0,0,11.11,0V385.4A5.57,5.57,0,0,0,349.26,379.85Z"/><path class="cls-1" d="M382.21,379.85a5.55,5.55,0,0,0-5.56,5.55v17.24a5.56,5.56,0,0,0,11.11,0V385.4A5.56,5.56,0,0,0,382.21,379.85Z"/><path class="cls-1" d="M232.12,48.94a5.55,5.55,0,0,0-5.55,5.56V71.72a5.55,5.55,0,1,0,11.1,0V54.5A5.55,5.55,0,0,0,232.12,48.94Z"/><path class="cls-1" d="M262.59,77.29a5.55,5.55,0,0,0,5.56-5.55V54.5a5.56,5.56,0,0,0-11.11,0V71.72A5.55,5.55,0,0,0,262.59,77.29Z"/><path class="cls-1" d="M232.12,106.88a5.54,5.54,0,0,0-5.55,5.55v17.22a5.55,5.55,0,1,0,11.1,0V112.43A5.54,5.54,0,0,0,232.12,106.88Z"/><path class="cls-1" d="M262.59,135.22a5.55,5.55,0,0,0,5.56-5.55V112.45a5.56,5.56,0,1,0-11.11,0v17.22A5.54,5.54,0,0,0,262.59,135.22Z"/><path class="cls-1" d="M232.12,164.81a5.54,5.54,0,0,0-5.55,5.55v17.22a5.55,5.55,0,1,0,11.1,0V170.36A5.54,5.54,0,0,0,232.12,164.81Z"/><path class="cls-1" d="M262.59,193.15a5.55,5.55,0,0,0,5.56-5.55V170.38a5.56,5.56,0,0,0-11.11,0V187.6A5.54,5.54,0,0,0,262.59,193.15Z"/><path class="cls-1" d="M232.12,222.73a5.55,5.55,0,0,0-5.55,5.56v17.24a5.55,5.55,0,0,0,11.1,0V228.29A5.55,5.55,0,0,0,232.12,222.73Z"/><path class="cls-1" d="M268.15,245.53V228.29a5.56,5.56,0,0,0-11.11,0v17.24a5.56,5.56,0,0,0,11.11,0Z"/><path class="cls-1" d="M232.12,280.69a5.54,5.54,0,0,0-5.55,5.55v17.24a5.55,5.55,0,1,0,11.1,0V286.24A5.53,5.53,0,0,0,232.12,280.69Z"/><path class="cls-1" d="M232.12,338.62a5.54,5.54,0,0,0-5.55,5.55v17.24a5.55,5.55,0,1,0,11.1,0V344.17A5.53,5.53,0,0,0,232.12,338.62Z"/></svg>