<svg id="Layer_1" data-name="Layer 1" xmlns="http://www.w3.org/2000/svg" viewBox="0 0 444 445"><defs><style>.cls-1{fill:#4e4d4d;}</style></defs><title>Prototype</title><path class="cls-1" d="M184.55,169.69v55.43a3.35,3.35,0,0,1-3.43,3.43H109a3.35,3.35,0,0,1-3.44-3.43V169.69a3.35,3.35,0,0,1,3.44-3.43h72.58C183.08,166.75,184.55,168.22,184.55,169.69ZM318.94,97.11l2.45-8.83L308.15,60.82s-93.68-5.89-183.92,5.39c0,0-39.24,7.85-40.22,26.49a13.57,13.57,0,0,0,.49,4.41ZM444,326.15a4.63,4.63,0,0,1-4.9,4.9H366.51c-2,7.36-5.4,9.81-6.87,10.3l-1,.49h-15.2v1A42.18,42.18,0,0,1,301.28,385c-23,0-42.18-18.64-42.18-41.69L111,343.8a42.21,42.21,0,0,1-84.36,1h-2c-6.87,0-15.2-1.47-18.15-7.35-3.43-6.38-2.94-13.25-2.45-20.6V310c0-22.56,2-44.63,5.89-74.55.49-2,.49-4.41,1-7.35,2-23.54,6.37-63.76,55.42-90.24C85,127.52,111,121.63,139.43,119.18c-7.35,0-12.75-.49-15.2-.49-15.2-1-28.94-7.36-35.8-15.21h229l-3.93,15.21s-34.33.49-74.06.49c19.62,1.47,37.77,3.92,52.48,5.88,62.78,9.81,77.49,57.39,76,81.42v41.69c.49,0,1-.49,1.47-.49a4.63,4.63,0,0,1,4.91,4.9v68.17h9.32v-52a6.49,6.49,0,0,1,6.37-6.37h34.82a6.49,6.49,0,0,1,6.38,6.37v52h7.36C441.55,321.24,444,323.2,444,326.15ZM75.68,183.43c-1-1-3-1-4.42,0l-27,27c-1,1-1,2.94,0,4.42a3.71,3.71,0,0,0,2,1,3.71,3.71,0,0,0,2-1l27-27C77.15,186.37,77.15,184.41,75.68,183.43Zm-2,16.18L59.49,213.83c-1,1-1,2.95,0,4.42a3.71,3.71,0,0,0,2,1,2.58,2.58,0,0,0,2-1L77.64,204c1-1,1-2.95,0-4.42C77.15,198.14,75.19,198.14,73.71,199.61ZM91.86,342.33a23.54,23.54,0,1,0-23.54,23.54C81.07,366.36,91.86,355.57,91.86,342.33Zm233,0a23.54,23.54,0,1,0-23.54,23.54C314,366.36,324.82,355.57,324.82,342.33ZM290.49,134.38A729.17,729.17,0,0,0,186,126.54c-43.65,0-87.79,4.9-114.77,19.61q-16.92,9.57-26.48,20.6H83a3.36,3.36,0,0,1,3.44,3.44v54.93A3.36,3.36,0,0,1,83,228.55H20.26v1c-.49,2.94-.49,5.39-1,7.36-3.93,29.42-5.89,51-5.89,73.07v7.36c-.49,6.86-.49,11.77,1.47,15.69.49,1.47,5.89,2,11.77,2A42.48,42.48,0,0,1,110,334l149.58-.49a42.09,42.09,0,0,1,41.2-33.35c19.62,0,36.29,13.74,41.2,31.88h13.73c1-1.47,2.45-5.88,2.45-16.67V206.48C358.17,203.54,360.13,145.66,290.49,134.38Zm31.88,35.31v55.43a3.35,3.35,0,0,1-3.43,3.43H208.59a3.35,3.35,0,0,1-3.44-3.43V169.69a3.35,3.35,0,0,1,3.44-3.43H318.94C320.9,166.75,322.37,168.22,322.37,169.69Zm-35.8,45.13,27-27c1-1,1-2.94,0-4.41-1-1-2.94-1-4.41,0l-27,27c-1,1-1,2.94,0,4.42a3,3,0,0,0,4.42,0ZM316,199.61c-1-1-2.94-1-4.41,0l-14.22,14.22c-1,1-1,2.95,0,4.42a3.71,3.71,0,0,0,2,1,2.55,2.55,0,0,0,2-1L315.5,204C317.47,202.55,317.47,200.59,316,199.61Z"/></svg>