<?xml version="1.0" encoding="utf-8"?>
<!-- Generator: Adobe Illustrator 24.0.1, SVG Export Plug-In . SVG Version: 6.00 Build 0)  -->
<svg version="1.1" id="Layer_1" xmlns="http://www.w3.org/2000/svg" xmlns:xlink="http://www.w3.org/1999/xlink" x="0px" y="0px"
	 viewBox="0 0 444 445" style="enable-background:new 0 0 444 445;" xml:space="preserve">
<style type="text/css">
	.st0{fill:#FFFFFF;}
</style>
<title>Prototype</title>
<path class="st0" d="M184.6,169.7v55.4c0,1.8-1.4,3.4-3.3,3.4c-0.1,0-0.1,0-0.2,0H109c-1.8,0.1-3.4-1.4-3.4-3.3c0-0.1,0-0.1,0-0.2
	v-55.4c0-1.8,1.4-3.4,3.3-3.4c0.1,0,0.1,0,0.2,0h72.6C183.1,166.8,184.6,168.2,184.6,169.7z M318.9,97.1l2.5-8.8l-13.2-27.5
	c0,0-93.7-5.9-183.9,5.4c0,0-39.2,7.8-40.2,26.5c-0.1,1.5,0.1,3,0.5,4.4H318.9z M444,326.1c0.2,2.6-1.8,4.7-4.3,4.9
	c-0.2,0-0.4,0-0.6,0h-72.6c-2,7.4-5.4,9.8-6.9,10.3l-1,0.5h-15.2v1c0,23.3-18.9,42.1-42.2,42.2c-23,0-42.2-18.6-42.2-41.7L111,343.8
	c-0.6,23.3-19.9,41.7-43.2,41.2c-22.1-0.5-40.1-18.1-41.2-40.2h-2c-6.9,0-15.2-1.5-18.1-7.4c-3.4-6.4-2.9-13.3-2.4-20.6V310
	c0-22.6,2-44.6,5.9-74.6c0.5-2,0.5-4.4,1-7.4c2-23.5,6.4-63.8,55.4-90.2c18.7-10.3,44.7-16.2,73.1-18.7c-7.4,0-12.8-0.5-15.2-0.5
	c-15.2-1-28.9-7.4-35.8-15.2h229l-3.9,15.2c0,0-34.3,0.5-74.1,0.5c19.6,1.5,37.8,3.9,52.5,5.9c62.8,9.8,77.5,57.4,76,81.4v41.7
	c0.5,0,1-0.5,1.5-0.5c2.6-0.2,4.8,1.8,4.9,4.3c0,0.2,0,0.4,0,0.6v68.2h9.3v-52c0.1-3.5,2.9-6.3,6.4-6.4h34.8
	c3.5,0.1,6.3,2.9,6.4,6.4v52h7.4C441.5,321.2,444,323.2,444,326.1z M75.7,183.4c-1-1-3-1-4.4,0l-27,27c-1,1-1,2.9,0,4.4
	c0.5,0.5,1.2,0.9,2,1c0.8-0.1,1.5-0.5,2-1l27-27C77.2,186.4,77.2,184.4,75.7,183.4z M73.7,199.6l-14.2,14.2c-1,1-1,2.9,0,4.4
	c0.5,0.5,1.2,0.9,2,1c0.8,0,1.5-0.4,2-1L77.6,204c1-1,1-2.9,0-4.4C77.2,198.1,75.2,198.1,73.7,199.6L73.7,199.6z M91.9,342.3
	c0-13-10.5-23.5-23.5-23.5c-13,0-23.5,10.5-23.5,23.5c0,13,10.5,23.5,23.5,23.5C81.1,366.4,91.9,355.6,91.9,342.3z M324.9,342.3
	c0-13-10.5-23.5-23.5-23.5c-13,0-23.5,10.5-23.5,23.5c0,13,10.5,23.5,23.5,23.5C314,366.4,324.8,355.6,324.9,342.3L324.9,342.3z
	 M290.5,134.4c-34.6-5.1-69.5-7.7-104.5-7.8c-43.6,0-87.8,4.9-114.8,19.6c-11.3,6.4-20.1,13.2-26.5,20.6H83c1.9,0,3.4,1.4,3.4,3.3
	c0,0.1,0,0.1,0,0.2v54.9c0,1.9-1.4,3.4-3.3,3.4c-0.1,0-0.1,0-0.2,0H20.3v1c-0.5,2.9-0.5,5.4-1,7.4c-3.9,29.4-5.9,51-5.9,73.1v7.4
	c-0.5,6.9-0.5,11.8,1.5,15.7c0.5,1.5,5.9,2,11.8,2c4.2-23.1,26.3-38.4,49.4-34.2c17,3.1,30.5,16.2,34,33.2l149.6-0.5
	c4.1-19.5,21.3-33.4,41.2-33.4c19.6,0,36.3,13.7,41.2,31.9h13.7c1-1.5,2.5-5.9,2.5-16.7V206.5C358.2,203.5,360.1,145.7,290.5,134.4z
	 M322.4,169.7v55.4c0,1.8-1.4,3.4-3.3,3.4c-0.1,0-0.1,0-0.2,0H208.6c-1.8,0.1-3.4-1.4-3.4-3.3c0-0.1,0-0.1,0-0.2v-55.4
	c0-1.8,1.4-3.4,3.3-3.4c0.1,0,0.1,0,0.2,0h110.4C320.9,166.8,322.4,168.2,322.4,169.7z M286.6,214.8l27-27c1-1,1-2.9,0-4.4
	c-1-1-2.9-1-4.4,0l-27,27c-1,1-1,2.9,0,4.4c1.1,1.2,3,1.3,4.2,0.2C286.5,215,286.5,214.9,286.6,214.8L286.6,214.8z M316,199.6
	c-1-1-2.9-1-4.4,0l-14.2,14.2c-1,1-1,2.9,0,4.4c0.5,0.5,1.2,0.9,2,1c0.8,0,1.5-0.4,2-1l14.1-14.3C317.5,202.6,317.5,200.6,316,199.6
	z"/>
</svg>
