<?xml version="1.0" encoding="utf-8"?>
<!-- Generator: Adobe Illustrator 24.0.1, SVG Export Plug-In . SVG Version: 6.00 Build 0)  -->
<svg version="1.1" id="Layer_1" xmlns="http://www.w3.org/2000/svg" xmlns:xlink="http://www.w3.org/1999/xlink" x="0px" y="0px"
	 viewBox="0 0 444 445" style="enable-background:new 0 0 444 445;" xml:space="preserve">
<style type="text/css">
	.st0{fill:#FFFFFF;}
</style>
<title>Prototype</title>
<path class="st0" d="M222.2,395.9l-7.4-7.7c-0.7-0.7-16.4-17.1-32.3-43.7c-14.8-24.7-32.3-63.2-32.3-106.3s17.6-81.6,32.3-106.3
	c15.9-26.6,31.6-43,32.3-43.7l7.4-7.7l7.4,7.7c0.7,0.7,16.4,17.1,32.3,43.7c14.8,24.7,32.3,63.2,32.3,106.2s-17.6,81.6-32.3,106.3
	c-15.9,26.6-31.6,43-32.3,43.7L222.2,395.9z M222.2,111.2c-15.8,19.4-51.4,69.5-51.4,127.1c0,57.7,35.6,107.7,51.4,127.1
	c15.8-19.4,51.4-69.5,51.4-127.1C273.6,180.6,238,130.6,222.2,111.2L222.2,111.2z"/>
<path class="st0" d="M262.8,405.4c-5.7,0-10.3-4.6-10.3-10.3c0-5,3.6-9.3,8.6-10.1c0.8-0.2,84.1-15.4,127.5-74.9
	c34-46.6,34.8-108,33.4-132.9c-19.5,5.1-61.2,18.7-94.3,48.1c-4.2,3.9-10.7,3.6-14.6-0.5c-3.9-4.2-3.6-10.7,0.5-14.6
	c0.1-0.1,0.2-0.2,0.4-0.3c49.1-43.6,112.8-55.1,115.5-55.5l10.5-1.8l1.5,10.6c0.1,0.9,3.2,23.5,0.3,54.3
	c-2.6,28.6-11.1,70.1-36.5,104.9S343,377.7,316.5,389c-28.5,12.1-50.9,16.1-51.9,16.3C264,405.3,263.4,405.4,262.8,405.4z"/>
<path class="st0" d="M181.6,405.4c-0.6,0-1.2-0.1-1.8-0.2c-0.9-0.1-23.4-4.2-51.8-16.3c-26.5-11.3-63.4-32-88.8-66.8
	S5.3,246,2.6,217.4C-0.2,186.6,2.8,164,3,163l1.4-10.6l10.5,1.8c2.7,0.5,66.4,12,115.5,55.5c4.4,3.7,4.9,10.2,1.2,14.5
	c-3.7,4.4-10.2,4.9-14.5,1.2c-0.1-0.1-0.3-0.2-0.4-0.3c-33.2-29.5-74.8-43-94.3-48.1c-1.3,25-0.5,86.5,33.4,133
	c43.5,59.6,126.7,74.7,127.5,74.9c5.6,1,9.4,6.3,8.4,11.9C190.9,401.8,186.6,405.4,181.6,405.4L181.6,405.4z"/>
</svg>
