<svg id="Layer_1" data-name="Layer 1" xmlns="http://www.w3.org/2000/svg" viewBox="0 0 444 445"><defs><style>.cls-1{fill:#4e4d4d;}</style></defs><title>Prototype</title><path class="cls-1" d="M222.21,395.91l-7.41-7.69c-.67-.69-16.45-17.13-32.31-43.69-14.76-24.68-32.33-63.17-32.33-106.25S167.73,156.72,182.49,132c15.86-26.56,31.64-43,32.31-43.7l7.41-7.7,7.42,7.68c.67.69,16.44,17.14,32.31,43.7,14.76,24.68,32.33,63.16,32.33,106.24s-17.57,81.57-32.33,106.25c-15.87,26.56-31.64,43-32.31,43.69Zm0-284.69c-15.81,19.4-51.43,69.49-51.43,127.06,0,57.73,35.58,107.7,51.41,127.06,15.81-19.4,51.44-69.51,51.44-127.06C273.63,180.56,238,130.58,222.23,111.22Z"/><path class="cls-1" d="M262.84,405.4a10.31,10.31,0,0,1-1.74-20.47c.82-.16,84.09-15.39,127.49-74.86,34-46.62,34.77-108,33.41-132.94-19.51,5.1-61.2,18.7-94.33,48.1A10.31,10.31,0,1,1,314,209.8c49.11-43.6,112.81-55.08,115.5-55.53L440,152.45,441.47,163c.13.94,3.16,23.54.32,54.33-2.64,28.63-11.13,70.09-36.54,104.89S343,377.74,316.48,389c-28.48,12.09-50.92,16.08-51.86,16.25a12.33,12.33,0,0,1-1.78.15Z"/><path class="cls-1" d="M181.59,405.4a10.83,10.83,0,0,1-1.79-.16c-.94-.15-23.38-4.16-51.85-16.25-26.47-11.25-63.36-32-88.77-66.75S5.29,246,2.63,217.36C-.23,186.56,2.82,164,3,163l1.45-10.58,10.52,1.82c2.69.46,66.39,12,115.51,55.54a10.32,10.32,0,1,1-13.71,15.42c-33.23-29.49-74.79-43-94.31-48.12-1.28,25-.51,86.47,33.43,133,43.54,59.63,126.65,74.7,127.5,74.85a10.31,10.31,0,0,1-1.77,20.47Z"/></svg>